<!--
Font Awesome Free License
––––––––––––––––––––––––-

Font Awesome Free is free, open source, and GPL friendly. You can use it for
commercial projects, open source projects, or really almost whatever you want.
Full Font Awesome Free license: https://fontawesome.com/license/free.

# Icons: CC BY 4.0 License (https://creativecommons.org/licenses/by/4.0/)
In the Font Awesome Free download, the CC BY 4.0 license applies to all icons
packaged as SVG and JS file types.

# Fonts: SIL OFL 1.1 License (https://scripts.sil.org/OFL)
In the Font Awesome Free download, the SIL OFL license applies to all icons
packaged as web and desktop font files.

# Code: MIT License (https://opensource.org/licenses/MIT)
In the Font Awesome Free download, the MIT license applies to all non-font and
non-icon files.

# Attribution
Attribution is required by MIT, SIL OFL, and CC BY licenses. Downloaded Font
Awesome Free files already contain embedded comments with sufficient
attribution, so you shouldn't need to do anything additional when using these
files normally.

We've kept attribution comments terse, so we ask that you do not actively work
to remove them from files, especially code. They're a great way for folks to
learn about Font Awesome.

# Brand Icons
All brand icons are trademarks of their respective owners. The use of these
trademarks does not indicate endorsement of the trademark holder by Font
Awesome, nor vice versa. **Please do not use brand logos for any purpose except
to represent the company, product, or service to which they refer.**

-->
<svg xmlns="http://www.w3.org/2000/svg" viewBox="0 0 512 512" fill="#fcd12a"><path d="M352 96c0-53.02-42.98-96-96-96s-96 42.98-96 96 42.98 96 96 96 96-42.98 96-96zM233.59 241.1c-59.33-36.32-155.43-46.3-203.79-49.05C13.55 191.13 0 203.51 0 219.14v222.8c0 14.33 11.59 26.28 26.49 27.05 43.66 2.29 131.99 10.68 193.04 41.43 9.37 4.72 20.48-1.71 20.48-11.87V252.56c-.01-4.67-2.32-8.95-6.42-11.46zm248.61-49.05c-48.35 2.74-144.46 12.73-203.78 49.05-4.1 2.51-6.41 6.96-6.41 11.63v245.79c0 10.19 11.14 16.63 20.54 11.9 61.04-30.72 149.32-39.11 192.97-41.4 14.9-.78 26.49-12.73 26.49-27.06V219.14c-.01-15.63-13.56-28.01-29.81-27.09z"/></svg>